<?xml version="1.0" encoding="utf-8" standalone="no"?>
<!DOCTYPE svg PUBLIC "-//W3C//DTD SVG 1.1//EN"
  "http://www.w3.org/Graphics/SVG/1.1/DTD/svg11.dtd">
<svg xmlns:xlink="http://www.w3.org/1999/xlink" width="568.370625pt" height="412.114375pt" viewBox="0 0 568.370625 412.114375" xmlns="http://www.w3.org/2000/svg" version="1.1">
 <metadata>
  <rdf:RDF xmlns:dc="http://purl.org/dc/elements/1.1/" xmlns:cc="http://creativecommons.org/ns#" xmlns:rdf="http://www.w3.org/1999/02/22-rdf-syntax-ns#">
   <cc:Work>
    <dc:type rdf:resource="http://purl.org/dc/dcmitype/StillImage"/>
    <dc:date>2025-10-16T18:38:34.353152</dc:date>
    <dc:format>image/svg+xml</dc:format>
    <dc:creator>
     <cc:Agent>
      <dc:title>Matplotlib v3.10.7, https://matplotlib.org/</dc:title>
     </cc:Agent>
    </dc:creator>
   </cc:Work>
  </rdf:RDF>
 </metadata>
 <defs>
  <style type="text/css">*{stroke-linejoin: round; stroke-linecap: butt}</style>
 </defs>
 <g id="figure_1">
  <g id="patch_1">
   <path d="M 0 412.114375 
L 568.370625 412.114375 
L 568.370625 0 
L 0 0 
z
" style="fill: #ffffff"/>
  </g>
  <g id="axes_1">
   <g id="patch_2">
    <path d="M 34.240625 374.558125 
L 561.170625 374.558125 
L 561.170625 22.318125 
L 34.240625 22.318125 
z
" style="fill: #ffffff"/>
   </g>
   <g id="FillBetweenPolyCollection_1">
    <defs>
     <path id="m3387848c25" d="M 187.763393 -76.65874 
L 187.498402 -76.65874 
L 184.340494 -79.590662 
L 161.856916 -82.522584 
L 103.162164 -85.454506 
L 58.522416 -88.386428 
L 58.191989 -91.31835 
L 73.662631 -94.250272 
L 93.839493 -97.182194 
L 116.109951 -100.114116 
L 134.130836 -103.046038 
L 146.281706 -105.977959 
L 158.713985 -108.909881 
L 167.869712 -111.841803 
L 175.226507 -114.773725 
L 179.751501 -117.705647 
L 181.315187 -120.637569 
L 181.522799 -123.569491 
L 182.347069 -126.501413 
L 183.426822 -129.433335 
L 184.605082 -132.365257 
L 185.033564 -135.297179 
L 185.405002 -138.2291 
L 185.751242 -141.161022 
L 186.158755 -144.092944 
L 186.309419 -147.024866 
L 186.533009 -149.956788 
L 187.050417 -152.88871 
L 187.147051 -155.820632 
L 186.974902 -158.752554 
L 186.960897 -161.684476 
L 187.08972 -164.616398 
L 187.068539 -167.54832 
L 187.128184 -170.480242 
L 187.296995 -173.412163 
L 187.421216 -176.344085 
L 187.447194 -179.276007 
L 187.482043 -182.207929 
L 187.363921 -185.139851 
L 187.380136 -188.071773 
L 187.523878 -191.003695 
L 187.528373 -193.935617 
L 187.52055 -196.867539 
L 187.555112 -199.799461 
L 187.535471 -202.731383 
L 187.582592 -205.663304 
L 187.621178 -208.595226 
L 187.568045 -211.527148 
L 187.548078 -214.45907 
L 187.553071 -217.390992 
L 187.589305 -220.322914 
L 187.615535 -223.254836 
L 187.596962 -226.186758 
L 187.621926 -229.11868 
L 187.60679 -232.050602 
L 187.604411 -234.982524 
L 187.628353 -237.914446 
L 187.622975 -240.846367 
L 187.596685 -243.778289 
L 187.618771 -246.710211 
L 187.630546 -249.642133 
L 187.630897 -252.574055 
L 187.630898 -255.505977 
L 187.630898 -258.437899 
L 187.630898 -261.369821 
L 187.630898 -264.301743 
L 187.630897 -267.233665 
L 187.630637 -270.165587 
L 187.620419 -273.097508 
L 187.596395 -276.02943 
L 187.621595 -278.961352 
L 187.630692 -281.893274 
L 187.630897 -284.825196 
L 187.630898 -287.757118 
L 187.630898 -290.68904 
L 187.630898 -293.620962 
L 187.630898 -296.552884 
L 187.630898 -299.484806 
L 187.630898 -302.416728 
L 187.630898 -305.34865 
L 187.630898 -308.280571 
L 187.630898 -311.212493 
L 187.630898 -314.144415 
L 187.630898 -317.076337 
L 187.630898 -320.008259 
L 187.630898 -322.940181 
L 187.630882 -325.872103 
L 187.628654 -328.804025 
L 187.604961 -331.735947 
L 187.60634 -334.667869 
L 187.628993 -337.599791 
L 187.630886 -340.531712 
L 187.630898 -343.463634 
L 187.630898 -346.395556 
L 187.630898 -349.327478 
L 187.630898 -352.2594 
L 187.630895 -355.191322 
L 187.630101 -358.123244 
L 187.613357 -361.055166 
L 187.59926 -363.987088 
L 187.626225 -366.91901 
L 187.63557 -366.91901 
L 187.63557 -366.91901 
L 187.662535 -363.987088 
L 187.648439 -361.055166 
L 187.631694 -358.123244 
L 187.630901 -355.191322 
L 187.630898 -352.2594 
L 187.630898 -349.327478 
L 187.630898 -346.395556 
L 187.630898 -343.463634 
L 187.63091 -340.531712 
L 187.632802 -337.599791 
L 187.655456 -334.667869 
L 187.656835 -331.735947 
L 187.633141 -328.804025 
L 187.630913 -325.872103 
L 187.630898 -322.940181 
L 187.630898 -320.008259 
L 187.630898 -317.076337 
L 187.630898 -314.144415 
L 187.630898 -311.212493 
L 187.630898 -308.280571 
L 187.630898 -305.34865 
L 187.630898 -302.416728 
L 187.630898 -299.484806 
L 187.630898 -296.552884 
L 187.630898 -293.620962 
L 187.630898 -290.68904 
L 187.630898 -287.757118 
L 187.630898 -284.825196 
L 187.631103 -281.893274 
L 187.6402 -278.961352 
L 187.6654 -276.02943 
L 187.641377 -273.097508 
L 187.631158 -270.165587 
L 187.630898 -267.233665 
L 187.630898 -264.301743 
L 187.630898 -261.369821 
L 187.630898 -258.437899 
L 187.630898 -255.505977 
L 187.630898 -252.574055 
L 187.63125 -249.642133 
L 187.643024 -246.710211 
L 187.66511 -243.778289 
L 187.63882 -240.846367 
L 187.633443 -237.914446 
L 187.657385 -234.982524 
L 187.655005 -232.050602 
L 187.639869 -229.11868 
L 187.664833 -226.186758 
L 187.64626 -223.254836 
L 187.67249 -220.322914 
L 187.708724 -217.390992 
L 187.713717 -214.45907 
L 187.69375 -211.527148 
L 187.640617 -208.595226 
L 187.679203 -205.663304 
L 187.726324 -202.731383 
L 187.706683 -199.799461 
L 187.741245 -196.867539 
L 187.733422 -193.935617 
L 187.737918 -191.003695 
L 187.88166 -188.071773 
L 187.897874 -185.139851 
L 187.779752 -182.207929 
L 187.814601 -179.276007 
L 187.840579 -176.344085 
L 187.9648 -173.412163 
L 188.133611 -170.480242 
L 188.193257 -167.54832 
L 188.172075 -164.616398 
L 188.300898 -161.684476 
L 188.286894 -158.752554 
L 188.114744 -155.820632 
L 188.211378 -152.88871 
L 188.728787 -149.956788 
L 188.952376 -147.024866 
L 189.10304 -144.092944 
L 189.510553 -141.161022 
L 189.856794 -138.2291 
L 190.228231 -135.297179 
L 190.656713 -132.365257 
L 191.834973 -129.433335 
L 192.914726 -126.501413 
L 193.738996 -123.569491 
L 193.946608 -120.637569 
L 195.510294 -117.705647 
L 200.035288 -114.773725 
L 207.392083 -111.841803 
L 216.54781 -108.909881 
L 228.980089 -105.977959 
L 241.130959 -103.046038 
L 259.151844 -100.114116 
L 281.422303 -97.182194 
L 301.599164 -94.250272 
L 317.069807 -91.31835 
L 316.739379 -88.386428 
L 272.099631 -85.454506 
L 213.404879 -82.522584 
L 190.921301 -79.590662 
L 187.763393 -76.65874 
z
" style="stroke: #3f3f3f; stroke-width: 1.25"/>
    </defs>
    <g clip-path="url(#pfb9eee0547)">
     <use xlink:href="#m3387848c25" x="0" y="412.114375" style="fill: #3274a1; stroke: #3f3f3f; stroke-width: 1.25"/>
    </g>
   </g>
   <g id="FillBetweenPolyCollection_2">
    <defs>
     <path id="mba524c92e6" d="M 511.944985 -53.567159 
L 510.511355 -53.567159 
L 510.126979 -56.801686 
L 509.58797 -60.036213 
L 508.858488 -63.27074 
L 507.905826 -66.505267 
L 506.705582 -69.739795 
L 505.24717 -72.974322 
L 503.538717 -76.208849 
L 501.610206 -79.443376 
L 499.513915 -82.677903 
L 497.321554 -85.91243 
L 495.118186 -89.146957 
L 492.993714 -92.381484 
L 491.033341 -95.616011 
L 489.308692 -98.850538 
L 487.871215 -102.085065 
L 486.748986 -105.319593 
L 485.947245 -108.55412 
L 485.452219 -111.788647 
L 485.237079 -115.023174 
L 485.26856 -118.257701 
L 485.512845 -121.492228 
L 485.939647 -124.726755 
L 486.524041 -127.961282 
L 487.246149 -131.195809 
L 488.089282 -134.430336 
L 489.037355 -137.664863 
L 490.07244 -140.89939 
L 491.173114 -144.133918 
L 492.313984 -147.368445 
L 493.466426 -150.602972 
L 494.60031 -153.837499 
L 495.686306 -157.072026 
L 496.698317 -160.306553 
L 497.615648 -163.54108 
L 498.424653 -166.775607 
L 499.119716 -170.010134 
L 499.703553 -173.244661 
L 500.186869 -176.479188 
L 500.587393 -179.713716 
L 500.92836 -182.948243 
L 501.236482 -186.18277 
L 501.53953 -189.417297 
L 501.863712 -192.651824 
L 502.231098 -195.886351 
L 502.657396 -199.120878 
L 503.150358 -202.355405 
L 503.709034 -205.589932 
L 504.323981 -208.824459 
L 504.978426 -212.058986 
L 505.650248 -215.293514 
L 506.31455 -218.528041 
L 506.946495 -221.762568 
L 507.524058 -224.997095 
L 508.030313 -228.231622 
L 508.454953 -231.466149 
L 508.794866 -234.700676 
L 509.053735 -237.935203 
L 509.240811 -241.16973 
L 509.36917 -244.404257 
L 509.453795 -247.638784 
L 509.509823 -250.873312 
L 509.551184 -254.107839 
L 509.589726 -257.342366 
L 509.634766 -260.576893 
L 509.692949 -263.81142 
L 509.768286 -267.045947 
L 509.862263 -270.280474 
L 509.974006 -273.515001 
L 510.100536 -276.749528 
L 510.237161 -279.984055 
L 510.378015 -283.218582 
L 510.516718 -286.45311 
L 510.647061 -289.687637 
L 510.763616 -292.922164 
L 510.862161 -296.156691 
L 510.939893 -299.391218 
L 510.995429 -302.625745 
L 511.02867 -305.860272 
L 511.040617 -309.094799 
L 511.033215 -312.329326 
L 511.009261 -315.563853 
L 510.972353 -318.79838 
L 510.926845 -322.032907 
L 510.877702 -325.267435 
L 510.830226 -328.501962 
L 510.789624 -331.736489 
L 510.760464 -334.971016 
L 510.74613 -338.205543 
L 510.74838 -341.44007 
L 510.767134 -344.674597 
L 510.800543 -347.909124 
L 510.845336 -351.143651 
L 510.897379 -354.378178 
L 510.95231 -357.612705 
L 511.006141 -360.847233 
L 511.055699 -364.08176 
L 511.098867 -367.316287 
L 511.134611 -370.550814 
L 511.162835 -373.785341 
L 511.293505 -373.785341 
L 511.293505 -373.785341 
L 511.321729 -370.550814 
L 511.357473 -367.316287 
L 511.400642 -364.08176 
L 511.450199 -360.847233 
L 511.50403 -357.612705 
L 511.558961 -354.378178 
L 511.611004 -351.143651 
L 511.655798 -347.909124 
L 511.689206 -344.674597 
L 511.70796 -341.44007 
L 511.71021 -338.205543 
L 511.695876 -334.971016 
L 511.666716 -331.736489 
L 511.626114 -328.501962 
L 511.578638 -325.267435 
L 511.529495 -322.032907 
L 511.483987 -318.79838 
L 511.44708 -315.563853 
L 511.423125 -312.329326 
L 511.415723 -309.094799 
L 511.42767 -305.860272 
L 511.460911 -302.625745 
L 511.516447 -299.391218 
L 511.594179 -296.156691 
L 511.692724 -292.922164 
L 511.809279 -289.687637 
L 511.939622 -286.45311 
L 512.078325 -283.218582 
L 512.219179 -279.984055 
L 512.355804 -276.749528 
L 512.482334 -273.515001 
L 512.594077 -270.280474 
L 512.688054 -267.045947 
L 512.763391 -263.81142 
L 512.821575 -260.576893 
L 512.866614 -257.342366 
L 512.905156 -254.107839 
L 512.946517 -250.873312 
L 513.002545 -247.638784 
L 513.08717 -244.404257 
L 513.215529 -241.16973 
L 513.402605 -237.935203 
L 513.661474 -234.700676 
L 514.001387 -231.466149 
L 514.426027 -228.231622 
L 514.932282 -224.997095 
L 515.509845 -221.762568 
L 516.14179 -218.528041 
L 516.806092 -215.293514 
L 517.477914 -212.058986 
L 518.132359 -208.824459 
L 518.747306 -205.589932 
L 519.305982 -202.355405 
L 519.798944 -199.120878 
L 520.225242 -195.886351 
L 520.592628 -192.651824 
L 520.91681 -189.417297 
L 521.219858 -186.18277 
L 521.52798 -182.948243 
L 521.868947 -179.713716 
L 522.269471 -176.479188 
L 522.752787 -173.244661 
L 523.336624 -170.010134 
L 524.031687 -166.775607 
L 524.840692 -163.54108 
L 525.758023 -160.306553 
L 526.770034 -157.072026 
L 527.85603 -153.837499 
L 528.989914 -150.602972 
L 530.142356 -147.368445 
L 531.283226 -144.133918 
L 532.3839 -140.89939 
L 533.418985 -137.664863 
L 534.367058 -134.430336 
L 535.210191 -131.195809 
L 535.9323 -127.961282 
L 536.516693 -124.726755 
L 536.943495 -121.492228 
L 537.18778 -118.257701 
L 537.219261 -115.023174 
L 537.004121 -111.788647 
L 536.509095 -108.55412 
L 535.707354 -105.319593 
L 534.585125 -102.085065 
L 533.147648 -98.850538 
L 531.422999 -95.616011 
L 529.462626 -92.381484 
L 527.338155 -89.146957 
L 525.134786 -85.91243 
L 522.942425 -82.677903 
L 520.846134 -79.443376 
L 518.917624 -76.208849 
L 517.20917 -72.974322 
L 515.750758 -69.739795 
L 514.550514 -66.505267 
L 513.597853 -63.27074 
L 512.86837 -60.036213 
L 512.329361 -56.801686 
L 511.944985 -53.567159 
z
" style="stroke: #3f3f3f; stroke-width: 1.25"/>
    </defs>
    <g clip-path="url(#pfb9eee0547)">
     <use xlink:href="#mba524c92e6" x="0" y="412.114375" style="fill: #3274a1; stroke: #3f3f3f; stroke-width: 1.25"/>
    </g>
   </g>
   <g id="PathCollection_1">
    <defs>
     <path id="m89f7475180" d="M 7.071068 0 
L -7.071068 -0 
" style="stroke: #ff0000; stroke-width: 1.5"/>
    </defs>
    <g clip-path="url(#pfb9eee0547)">
     <use xlink:href="#m89f7475180" x="187.630898" y="315.013864" style="fill: #ff0000; stroke: #ff0000; stroke-width: 1.5"/>
     <use xlink:href="#m89f7475180" x="511.22817" y="270.326566" style="fill: #ff0000; stroke: #ff0000; stroke-width: 1.5"/>
    </g>
   </g>
   <g id="matplotlib.axis_1">
    <g id="xtick_1">
     <g id="line2d_1">
      <defs>
       <path id="m5af738dc29" d="M 0 0 
L 0 3.5 
" style="stroke: #000000; stroke-width: 0.8"/>
      </defs>
      <g>
       <use xlink:href="#m5af738dc29" x="187.630898" y="374.558125" style="stroke: #000000; stroke-width: 0.8"/>
      </g>
     </g>
     <g id="text_1">
      <!-- Other -->
      <g transform="translate(173.434023 389.156562) scale(0.1 -0.1)">
       <defs>
        <path id="DejaVuSans-4f" d="M 2522 4238 
Q 1834 4238 1429 3725 
Q 1025 3213 1025 2328 
Q 1025 1447 1429 934 
Q 1834 422 2522 422 
Q 3209 422 3611 934 
Q 4013 1447 4013 2328 
Q 4013 3213 3611 3725 
Q 3209 4238 2522 4238 
z
M 2522 4750 
Q 3503 4750 4090 4092 
Q 4678 3434 4678 2328 
Q 4678 1225 4090 567 
Q 3503 -91 2522 -91 
Q 1538 -91 948 565 
Q 359 1222 359 2328 
Q 359 3434 948 4092 
Q 1538 4750 2522 4750 
z
" transform="scale(0.015625)"/>
        <path id="DejaVuSans-74" d="M 1172 4494 
L 1172 3500 
L 2356 3500 
L 2356 3053 
L 1172 3053 
L 1172 1153 
Q 1172 725 1289 603 
Q 1406 481 1766 481 
L 2356 481 
L 2356 0 
L 1766 0 
Q 1100 0 847 248 
Q 594 497 594 1153 
L 594 3053 
L 172 3053 
L 172 3500 
L 594 3500 
L 594 4494 
L 1172 4494 
z
" transform="scale(0.015625)"/>
        <path id="DejaVuSans-68" d="M 3513 2113 
L 3513 0 
L 2938 0 
L 2938 2094 
Q 2938 2591 2744 2837 
Q 2550 3084 2163 3084 
Q 1697 3084 1428 2787 
Q 1159 2491 1159 1978 
L 1159 0 
L 581 0 
L 581 4863 
L 1159 4863 
L 1159 2956 
Q 1366 3272 1645 3428 
Q 1925 3584 2291 3584 
Q 2894 3584 3203 3211 
Q 3513 2838 3513 2113 
z
" transform="scale(0.015625)"/>
        <path id="DejaVuSans-65" d="M 3597 1894 
L 3597 1613 
L 953 1613 
Q 991 1019 1311 708 
Q 1631 397 2203 397 
Q 2534 397 2845 478 
Q 3156 559 3463 722 
L 3463 178 
Q 3153 47 2828 -22 
Q 2503 -91 2169 -91 
Q 1331 -91 842 396 
Q 353 884 353 1716 
Q 353 2575 817 3079 
Q 1281 3584 2069 3584 
Q 2775 3584 3186 3129 
Q 3597 2675 3597 1894 
z
M 3022 2063 
Q 3016 2534 2758 2815 
Q 2500 3097 2075 3097 
Q 1594 3097 1305 2825 
Q 1016 2553 972 2059 
L 3022 2063 
z
" transform="scale(0.015625)"/>
        <path id="DejaVuSans-72" d="M 2631 2963 
Q 2534 3019 2420 3045 
Q 2306 3072 2169 3072 
Q 1681 3072 1420 2755 
Q 1159 2438 1159 1844 
L 1159 0 
L 581 0 
L 581 3500 
L 1159 3500 
L 1159 2956 
Q 1341 3275 1631 3429 
Q 1922 3584 2338 3584 
Q 2397 3584 2469 3576 
Q 2541 3569 2628 3553 
L 2631 2963 
z
" transform="scale(0.015625)"/>
       </defs>
       <use xlink:href="#DejaVuSans-4f"/>
       <use xlink:href="#DejaVuSans-74" transform="translate(78.710938 0)"/>
       <use xlink:href="#DejaVuSans-68" transform="translate(117.919922 0)"/>
       <use xlink:href="#DejaVuSans-65" transform="translate(181.298828 0)"/>
       <use xlink:href="#DejaVuSans-72" transform="translate(242.822266 0)"/>
      </g>
     </g>
    </g>
    <g id="xtick_2">
     <g id="line2d_2">
      <g>
       <use xlink:href="#m5af738dc29" x="511.22817" y="374.558125" style="stroke: #000000; stroke-width: 0.8"/>
      </g>
     </g>
     <g id="text_2">
      <!-- Waterfront -->
      <g transform="translate(484.555514 389.156562) scale(0.1 -0.1)">
       <defs>
        <path id="DejaVuSans-57" d="M 213 4666 
L 850 4666 
L 1831 722 
L 2809 4666 
L 3519 4666 
L 4500 722 
L 5478 4666 
L 6119 4666 
L 4947 0 
L 4153 0 
L 3169 4050 
L 2175 0 
L 1381 0 
L 213 4666 
z
" transform="scale(0.015625)"/>
        <path id="DejaVuSans-61" d="M 2194 1759 
Q 1497 1759 1228 1600 
Q 959 1441 959 1056 
Q 959 750 1161 570 
Q 1363 391 1709 391 
Q 2188 391 2477 730 
Q 2766 1069 2766 1631 
L 2766 1759 
L 2194 1759 
z
M 3341 1997 
L 3341 0 
L 2766 0 
L 2766 531 
Q 2569 213 2275 61 
Q 1981 -91 1556 -91 
Q 1019 -91 701 211 
Q 384 513 384 1019 
Q 384 1609 779 1909 
Q 1175 2209 1959 2209 
L 2766 2209 
L 2766 2266 
Q 2766 2663 2505 2880 
Q 2244 3097 1772 3097 
Q 1472 3097 1187 3025 
Q 903 2953 641 2809 
L 641 3341 
Q 956 3463 1253 3523 
Q 1550 3584 1831 3584 
Q 2591 3584 2966 3190 
Q 3341 2797 3341 1997 
z
" transform="scale(0.015625)"/>
        <path id="DejaVuSans-66" d="M 2375 4863 
L 2375 4384 
L 1825 4384 
Q 1516 4384 1395 4259 
Q 1275 4134 1275 3809 
L 1275 3500 
L 2222 3500 
L 2222 3053 
L 1275 3053 
L 1275 0 
L 697 0 
L 697 3053 
L 147 3053 
L 147 3500 
L 697 3500 
L 697 3744 
Q 697 4328 969 4595 
Q 1241 4863 1831 4863 
L 2375 4863 
z
" transform="scale(0.015625)"/>
        <path id="DejaVuSans-6f" d="M 1959 3097 
Q 1497 3097 1228 2736 
Q 959 2375 959 1747 
Q 959 1119 1226 758 
Q 1494 397 1959 397 
Q 2419 397 2687 759 
Q 2956 1122 2956 1747 
Q 2956 2369 2687 2733 
Q 2419 3097 1959 3097 
z
M 1959 3584 
Q 2709 3584 3137 3096 
Q 3566 2609 3566 1747 
Q 3566 888 3137 398 
Q 2709 -91 1959 -91 
Q 1206 -91 779 398 
Q 353 888 353 1747 
Q 353 2609 779 3096 
Q 1206 3584 1959 3584 
z
" transform="scale(0.015625)"/>
        <path id="DejaVuSans-6e" d="M 3513 2113 
L 3513 0 
L 2938 0 
L 2938 2094 
Q 2938 2591 2744 2837 
Q 2550 3084 2163 3084 
Q 1697 3084 1428 2787 
Q 1159 2491 1159 1978 
L 1159 0 
L 581 0 
L 581 3500 
L 1159 3500 
L 1159 2956 
Q 1366 3272 1645 3428 
Q 1925 3584 2291 3584 
Q 2894 3584 3203 3211 
Q 3513 2838 3513 2113 
z
" transform="scale(0.015625)"/>
       </defs>
       <use xlink:href="#DejaVuSans-57"/>
       <use xlink:href="#DejaVuSans-61" transform="translate(92.501953 0)"/>
       <use xlink:href="#DejaVuSans-74" transform="translate(153.78125 0)"/>
       <use xlink:href="#DejaVuSans-65" transform="translate(192.990234 0)"/>
       <use xlink:href="#DejaVuSans-72" transform="translate(254.513672 0)"/>
       <use xlink:href="#DejaVuSans-66" transform="translate(295.626953 0)"/>
       <use xlink:href="#DejaVuSans-72" transform="translate(330.832031 0)"/>
       <use xlink:href="#DejaVuSans-6f" transform="translate(369.695312 0)"/>
       <use xlink:href="#DejaVuSans-6e" transform="translate(430.876953 0)"/>
       <use xlink:href="#DejaVuSans-74" transform="translate(494.255859 0)"/>
      </g>
     </g>
    </g>
    <g id="text_3">
     <!-- At the Waterfront -->
     <g transform="translate(254.356406 402.834687) scale(0.1 -0.1)">
      <defs>
       <path id="DejaVuSans-41" d="M 2188 4044 
L 1331 1722 
L 3047 1722 
L 2188 4044 
z
M 1831 4666 
L 2547 4666 
L 4325 0 
L 3669 0 
L 3244 1197 
L 1141 1197 
L 716 0 
L 50 0 
L 1831 4666 
z
" transform="scale(0.015625)"/>
       <path id="DejaVuSans-20" transform="scale(0.015625)"/>
      </defs>
      <use xlink:href="#DejaVuSans-41"/>
      <use xlink:href="#DejaVuSans-74" transform="translate(66.658203 0)"/>
      <use xlink:href="#DejaVuSans-20" transform="translate(105.867188 0)"/>
      <use xlink:href="#DejaVuSans-74" transform="translate(137.654297 0)"/>
      <use xlink:href="#DejaVuSans-68" transform="translate(176.863281 0)"/>
      <use xlink:href="#DejaVuSans-65" transform="translate(240.242188 0)"/>
      <use xlink:href="#DejaVuSans-20" transform="translate(301.765625 0)"/>
      <use xlink:href="#DejaVuSans-57" transform="translate(333.552734 0)"/>
      <use xlink:href="#DejaVuSans-61" transform="translate(426.054688 0)"/>
      <use xlink:href="#DejaVuSans-74" transform="translate(487.333984 0)"/>
      <use xlink:href="#DejaVuSans-65" transform="translate(526.542969 0)"/>
      <use xlink:href="#DejaVuSans-72" transform="translate(588.066406 0)"/>
      <use xlink:href="#DejaVuSans-66" transform="translate(629.179688 0)"/>
      <use xlink:href="#DejaVuSans-72" transform="translate(664.384766 0)"/>
      <use xlink:href="#DejaVuSans-6f" transform="translate(703.248047 0)"/>
      <use xlink:href="#DejaVuSans-6e" transform="translate(764.429688 0)"/>
      <use xlink:href="#DejaVuSans-74" transform="translate(827.808594 0)"/>
     </g>
    </g>
   </g>
   <g id="matplotlib.axis_2">
    <g id="ytick_1">
     <g id="line2d_3">
      <defs>
       <path id="m199bd9022b" d="M 0 0 
L -3.5 0 
" style="stroke: #000000; stroke-width: 0.8"/>
      </defs>
      <g>
       <use xlink:href="#m199bd9022b" x="34.240625" y="334.793344" style="stroke: #000000; stroke-width: 0.8"/>
      </g>
     </g>
     <g id="text_4">
      <!-- 0 -->
      <g transform="translate(20.878125 338.592563) scale(0.1 -0.1)">
       <defs>
        <path id="DejaVuSans-30" d="M 2034 4250 
Q 1547 4250 1301 3770 
Q 1056 3291 1056 2328 
Q 1056 1369 1301 889 
Q 1547 409 2034 409 
Q 2525 409 2770 889 
Q 3016 1369 3016 2328 
Q 3016 3291 2770 3770 
Q 2525 4250 2034 4250 
z
M 2034 4750 
Q 2819 4750 3233 4129 
Q 3647 3509 3647 2328 
Q 3647 1150 3233 529 
Q 2819 -91 2034 -91 
Q 1250 -91 836 529 
Q 422 1150 422 2328 
Q 422 3509 836 4129 
Q 1250 4750 2034 4750 
z
" transform="scale(0.015625)"/>
       </defs>
       <use xlink:href="#DejaVuSans-30"/>
      </g>
     </g>
    </g>
    <g id="ytick_2">
     <g id="line2d_4">
      <g>
       <use xlink:href="#m199bd9022b" x="34.240625" y="260.535907" style="stroke: #000000; stroke-width: 0.8"/>
      </g>
     </g>
     <g id="text_5">
      <!-- 2 -->
      <g transform="translate(20.878125 264.335126) scale(0.1 -0.1)">
       <defs>
        <path id="DejaVuSans-32" d="M 1228 531 
L 3431 531 
L 3431 0 
L 469 0 
L 469 531 
Q 828 903 1448 1529 
Q 2069 2156 2228 2338 
Q 2531 2678 2651 2914 
Q 2772 3150 2772 3378 
Q 2772 3750 2511 3984 
Q 2250 4219 1831 4219 
Q 1534 4219 1204 4116 
Q 875 4013 500 3803 
L 500 4441 
Q 881 4594 1212 4672 
Q 1544 4750 1819 4750 
Q 2544 4750 2975 4387 
Q 3406 4025 3406 3419 
Q 3406 3131 3298 2873 
Q 3191 2616 2906 2266 
Q 2828 2175 2409 1742 
Q 1991 1309 1228 531 
z
" transform="scale(0.015625)"/>
       </defs>
       <use xlink:href="#DejaVuSans-32"/>
      </g>
     </g>
    </g>
    <g id="ytick_3">
     <g id="line2d_5">
      <g>
       <use xlink:href="#m199bd9022b" x="34.240625" y="186.27847" style="stroke: #000000; stroke-width: 0.8"/>
      </g>
     </g>
     <g id="text_6">
      <!-- 4 -->
      <g transform="translate(20.878125 190.077688) scale(0.1 -0.1)">
       <defs>
        <path id="DejaVuSans-34" d="M 2419 4116 
L 825 1625 
L 2419 1625 
L 2419 4116 
z
M 2253 4666 
L 3047 4666 
L 3047 1625 
L 3713 1625 
L 3713 1100 
L 3047 1100 
L 3047 0 
L 2419 0 
L 2419 1100 
L 313 1100 
L 313 1709 
L 2253 4666 
z
" transform="scale(0.015625)"/>
       </defs>
       <use xlink:href="#DejaVuSans-34"/>
      </g>
     </g>
    </g>
    <g id="ytick_4">
     <g id="line2d_6">
      <g>
       <use xlink:href="#m199bd9022b" x="34.240625" y="112.021033" style="stroke: #000000; stroke-width: 0.8"/>
      </g>
     </g>
     <g id="text_7">
      <!-- 6 -->
      <g transform="translate(20.878125 115.820251) scale(0.1 -0.1)">
       <defs>
        <path id="DejaVuSans-36" d="M 2113 2584 
Q 1688 2584 1439 2293 
Q 1191 2003 1191 1497 
Q 1191 994 1439 701 
Q 1688 409 2113 409 
Q 2538 409 2786 701 
Q 3034 994 3034 1497 
Q 3034 2003 2786 2293 
Q 2538 2584 2113 2584 
z
M 3366 4563 
L 3366 3988 
Q 3128 4100 2886 4159 
Q 2644 4219 2406 4219 
Q 1781 4219 1451 3797 
Q 1122 3375 1075 2522 
Q 1259 2794 1537 2939 
Q 1816 3084 2150 3084 
Q 2853 3084 3261 2657 
Q 3669 2231 3669 1497 
Q 3669 778 3244 343 
Q 2819 -91 2113 -91 
Q 1303 -91 875 529 
Q 447 1150 447 2328 
Q 447 3434 972 4092 
Q 1497 4750 2381 4750 
Q 2619 4750 2861 4703 
Q 3103 4656 3366 4563 
z
" transform="scale(0.015625)"/>
       </defs>
       <use xlink:href="#DejaVuSans-36"/>
      </g>
     </g>
    </g>
    <g id="ytick_5">
     <g id="line2d_7">
      <g>
       <use xlink:href="#m199bd9022b" x="34.240625" y="37.763595" style="stroke: #000000; stroke-width: 0.8"/>
      </g>
     </g>
     <g id="text_8">
      <!-- 8 -->
      <g transform="translate(20.878125 41.562814) scale(0.1 -0.1)">
       <defs>
        <path id="DejaVuSans-38" d="M 2034 2216 
Q 1584 2216 1326 1975 
Q 1069 1734 1069 1313 
Q 1069 891 1326 650 
Q 1584 409 2034 409 
Q 2484 409 2743 651 
Q 3003 894 3003 1313 
Q 3003 1734 2745 1975 
Q 2488 2216 2034 2216 
z
M 1403 2484 
Q 997 2584 770 2862 
Q 544 3141 544 3541 
Q 544 4100 942 4425 
Q 1341 4750 2034 4750 
Q 2731 4750 3128 4425 
Q 3525 4100 3525 3541 
Q 3525 3141 3298 2862 
Q 3072 2584 2669 2484 
Q 3125 2378 3379 2068 
Q 3634 1759 3634 1313 
Q 3634 634 3220 271 
Q 2806 -91 2034 -91 
Q 1263 -91 848 271 
Q 434 634 434 1313 
Q 434 1759 690 2068 
Q 947 2378 1403 2484 
z
M 1172 3481 
Q 1172 3119 1398 2916 
Q 1625 2713 2034 2713 
Q 2441 2713 2670 2916 
Q 2900 3119 2900 3481 
Q 2900 3844 2670 4047 
Q 2441 4250 2034 4250 
Q 1625 4250 1398 4047 
Q 1172 3844 1172 3481 
z
" transform="scale(0.015625)"/>
       </defs>
       <use xlink:href="#DejaVuSans-38"/>
      </g>
     </g>
    </g>
    <g id="text_9">
     <!-- Price of Houses -->
     <g transform="translate(14.798438 236.907656) rotate(-90) scale(0.1 -0.1)">
      <defs>
       <path id="DejaVuSans-50" d="M 1259 4147 
L 1259 2394 
L 2053 2394 
Q 2494 2394 2734 2622 
Q 2975 2850 2975 3272 
Q 2975 3691 2734 3919 
Q 2494 4147 2053 4147 
L 1259 4147 
z
M 628 4666 
L 2053 4666 
Q 2838 4666 3239 4311 
Q 3641 3956 3641 3272 
Q 3641 2581 3239 2228 
Q 2838 1875 2053 1875 
L 1259 1875 
L 1259 0 
L 628 0 
L 628 4666 
z
" transform="scale(0.015625)"/>
       <path id="DejaVuSans-69" d="M 603 3500 
L 1178 3500 
L 1178 0 
L 603 0 
L 603 3500 
z
M 603 4863 
L 1178 4863 
L 1178 4134 
L 603 4134 
L 603 4863 
z
" transform="scale(0.015625)"/>
       <path id="DejaVuSans-63" d="M 3122 3366 
L 3122 2828 
Q 2878 2963 2633 3030 
Q 2388 3097 2138 3097 
Q 1578 3097 1268 2742 
Q 959 2388 959 1747 
Q 959 1106 1268 751 
Q 1578 397 2138 397 
Q 2388 397 2633 464 
Q 2878 531 3122 666 
L 3122 134 
Q 2881 22 2623 -34 
Q 2366 -91 2075 -91 
Q 1284 -91 818 406 
Q 353 903 353 1747 
Q 353 2603 823 3093 
Q 1294 3584 2113 3584 
Q 2378 3584 2631 3529 
Q 2884 3475 3122 3366 
z
" transform="scale(0.015625)"/>
       <path id="DejaVuSans-48" d="M 628 4666 
L 1259 4666 
L 1259 2753 
L 3553 2753 
L 3553 4666 
L 4184 4666 
L 4184 0 
L 3553 0 
L 3553 2222 
L 1259 2222 
L 1259 0 
L 628 0 
L 628 4666 
z
" transform="scale(0.015625)"/>
       <path id="DejaVuSans-75" d="M 544 1381 
L 544 3500 
L 1119 3500 
L 1119 1403 
Q 1119 906 1312 657 
Q 1506 409 1894 409 
Q 2359 409 2629 706 
Q 2900 1003 2900 1516 
L 2900 3500 
L 3475 3500 
L 3475 0 
L 2900 0 
L 2900 538 
Q 2691 219 2414 64 
Q 2138 -91 1772 -91 
Q 1169 -91 856 284 
Q 544 659 544 1381 
z
M 1991 3584 
L 1991 3584 
z
" transform="scale(0.015625)"/>
       <path id="DejaVuSans-73" d="M 2834 3397 
L 2834 2853 
Q 2591 2978 2328 3040 
Q 2066 3103 1784 3103 
Q 1356 3103 1142 2972 
Q 928 2841 928 2578 
Q 928 2378 1081 2264 
Q 1234 2150 1697 2047 
L 1894 2003 
Q 2506 1872 2764 1633 
Q 3022 1394 3022 966 
Q 3022 478 2636 193 
Q 2250 -91 1575 -91 
Q 1294 -91 989 -36 
Q 684 19 347 128 
L 347 722 
Q 666 556 975 473 
Q 1284 391 1588 391 
Q 1994 391 2212 530 
Q 2431 669 2431 922 
Q 2431 1156 2273 1281 
Q 2116 1406 1581 1522 
L 1381 1569 
Q 847 1681 609 1914 
Q 372 2147 372 2553 
Q 372 3047 722 3315 
Q 1072 3584 1716 3584 
Q 2034 3584 2315 3537 
Q 2597 3491 2834 3397 
z
" transform="scale(0.015625)"/>
      </defs>
      <use xlink:href="#DejaVuSans-50"/>
      <use xlink:href="#DejaVuSans-72" transform="translate(58.552734 0)"/>
      <use xlink:href="#DejaVuSans-69" transform="translate(99.666016 0)"/>
      <use xlink:href="#DejaVuSans-63" transform="translate(127.449219 0)"/>
      <use xlink:href="#DejaVuSans-65" transform="translate(182.429688 0)"/>
      <use xlink:href="#DejaVuSans-20" transform="translate(243.953125 0)"/>
      <use xlink:href="#DejaVuSans-6f" transform="translate(275.740234 0)"/>
      <use xlink:href="#DejaVuSans-66" transform="translate(336.921875 0)"/>
      <use xlink:href="#DejaVuSans-20" transform="translate(372.126953 0)"/>
      <use xlink:href="#DejaVuSans-48" transform="translate(403.914062 0)"/>
      <use xlink:href="#DejaVuSans-6f" transform="translate(479.109375 0)"/>
      <use xlink:href="#DejaVuSans-75" transform="translate(540.291016 0)"/>
      <use xlink:href="#DejaVuSans-73" transform="translate(603.669922 0)"/>
      <use xlink:href="#DejaVuSans-65" transform="translate(655.769531 0)"/>
      <use xlink:href="#DejaVuSans-73" transform="translate(717.292969 0)"/>
     </g>
    </g>
    <g id="text_10">
     <!-- 1e6 -->
     <g transform="translate(34.240625 19.318125) scale(0.1 -0.1)">
      <defs>
       <path id="DejaVuSans-31" d="M 794 531 
L 1825 531 
L 1825 4091 
L 703 3866 
L 703 4441 
L 1819 4666 
L 2450 4666 
L 2450 531 
L 3481 531 
L 3481 0 
L 794 0 
L 794 531 
z
" transform="scale(0.015625)"/>
      </defs>
      <use xlink:href="#DejaVuSans-31"/>
      <use xlink:href="#DejaVuSans-65" transform="translate(63.623047 0)"/>
      <use xlink:href="#DejaVuSans-36" transform="translate(125.146484 0)"/>
     </g>
    </g>
   </g>
   <g id="line2d_8">
    <path d="M 187.630898 331.748789 
L 187.630898 293.580466 
" clip-path="url(#pfb9eee0547)" style="fill: none; stroke: #3f3f3f; stroke-width: 1.875; stroke-linecap: square"/>
   </g>
   <g id="line2d_9">
    <path d="M 187.630898 322.912154 
L 187.630898 311.042103 
" clip-path="url(#pfb9eee0547)" style="fill: none; stroke: #3f3f3f; stroke-width: 5.625; stroke-linecap: square"/>
   </g>
   <g id="line2d_10">
    <path d="M 187.630898 318.085421 
" clip-path="url(#pfb9eee0547)" style="fill: none; stroke: #3f3f3f; stroke-width: 1.5; stroke-linecap: square"/>
    <defs>
     <path id="m9c5303ce0e" d="M 2.34375 0 
L -2.34375 -0 
" style="stroke: #ffffff; stroke-width: 1.125"/>
    </defs>
    <g clip-path="url(#pfb9eee0547)">
     <use xlink:href="#m9c5303ce0e" x="187.630898" y="318.085421" style="fill: #ffffff; stroke: #ffffff; stroke-width: 1.125"/>
    </g>
   </g>
   <g id="line2d_11">
    <path d="M 511.22817 324.211659 
L 511.22817 167.71411 
" clip-path="url(#pfb9eee0547)" style="fill: none; stroke: #3f3f3f; stroke-width: 1.875; stroke-linecap: square"/>
   </g>
   <g id="line2d_12">
    <path d="M 511.22817 305.090369 
L 511.22817 249.397291 
" clip-path="url(#pfb9eee0547)" style="fill: none; stroke: #3f3f3f; stroke-width: 5.625; stroke-linecap: square"/>
   </g>
   <g id="line2d_13">
    <path d="M 511.22817 282.813138 
" clip-path="url(#pfb9eee0547)" style="fill: none; stroke: #3f3f3f; stroke-width: 1.5; stroke-linecap: square"/>
    <g clip-path="url(#pfb9eee0547)">
     <use xlink:href="#m9c5303ce0e" x="511.22817" y="282.813138" style="fill: #ffffff; stroke: #ffffff; stroke-width: 1.125"/>
    </g>
   </g>
   <g id="patch_3">
    <path d="M 34.240625 374.558125 
L 34.240625 22.318125 
" style="fill: none; stroke: #000000; stroke-width: 0.8; stroke-linejoin: miter; stroke-linecap: square"/>
   </g>
   <g id="patch_4">
    <path d="M 561.170625 374.558125 
L 561.170625 22.318125 
" style="fill: none; stroke: #000000; stroke-width: 0.8; stroke-linejoin: miter; stroke-linecap: square"/>
   </g>
   <g id="patch_5">
    <path d="M 34.240625 374.558125 
L 561.170625 374.558125 
" style="fill: none; stroke: #000000; stroke-width: 0.8; stroke-linejoin: miter; stroke-linecap: square"/>
   </g>
   <g id="patch_6">
    <path d="M 34.240625 22.318125 
L 561.170625 22.318125 
" style="fill: none; stroke: #000000; stroke-width: 0.8; stroke-linejoin: miter; stroke-linecap: square"/>
   </g>
   <g id="text_11">
    <!-- Comparison of Prices of Houses at the Waterfront or away from the Waterfront -->
    <g transform="translate(61.994687 16.318125) scale(0.12 -0.12)">
     <defs>
      <path id="DejaVuSans-43" d="M 4122 4306 
L 4122 3641 
Q 3803 3938 3442 4084 
Q 3081 4231 2675 4231 
Q 1875 4231 1450 3742 
Q 1025 3253 1025 2328 
Q 1025 1406 1450 917 
Q 1875 428 2675 428 
Q 3081 428 3442 575 
Q 3803 722 4122 1019 
L 4122 359 
Q 3791 134 3420 21 
Q 3050 -91 2638 -91 
Q 1578 -91 968 557 
Q 359 1206 359 2328 
Q 359 3453 968 4101 
Q 1578 4750 2638 4750 
Q 3056 4750 3426 4639 
Q 3797 4528 4122 4306 
z
" transform="scale(0.015625)"/>
      <path id="DejaVuSans-6d" d="M 3328 2828 
Q 3544 3216 3844 3400 
Q 4144 3584 4550 3584 
Q 5097 3584 5394 3201 
Q 5691 2819 5691 2113 
L 5691 0 
L 5113 0 
L 5113 2094 
Q 5113 2597 4934 2840 
Q 4756 3084 4391 3084 
Q 3944 3084 3684 2787 
Q 3425 2491 3425 1978 
L 3425 0 
L 2847 0 
L 2847 2094 
Q 2847 2600 2669 2842 
Q 2491 3084 2119 3084 
Q 1678 3084 1418 2786 
Q 1159 2488 1159 1978 
L 1159 0 
L 581 0 
L 581 3500 
L 1159 3500 
L 1159 2956 
Q 1356 3278 1631 3431 
Q 1906 3584 2284 3584 
Q 2666 3584 2933 3390 
Q 3200 3197 3328 2828 
z
" transform="scale(0.015625)"/>
      <path id="DejaVuSans-70" d="M 1159 525 
L 1159 -1331 
L 581 -1331 
L 581 3500 
L 1159 3500 
L 1159 2969 
Q 1341 3281 1617 3432 
Q 1894 3584 2278 3584 
Q 2916 3584 3314 3078 
Q 3713 2572 3713 1747 
Q 3713 922 3314 415 
Q 2916 -91 2278 -91 
Q 1894 -91 1617 61 
Q 1341 213 1159 525 
z
M 3116 1747 
Q 3116 2381 2855 2742 
Q 2594 3103 2138 3103 
Q 1681 3103 1420 2742 
Q 1159 2381 1159 1747 
Q 1159 1113 1420 752 
Q 1681 391 2138 391 
Q 2594 391 2855 752 
Q 3116 1113 3116 1747 
z
" transform="scale(0.015625)"/>
      <path id="DejaVuSans-77" d="M 269 3500 
L 844 3500 
L 1563 769 
L 2278 3500 
L 2956 3500 
L 3675 769 
L 4391 3500 
L 4966 3500 
L 4050 0 
L 3372 0 
L 2619 2869 
L 1863 0 
L 1184 0 
L 269 3500 
z
" transform="scale(0.015625)"/>
      <path id="DejaVuSans-79" d="M 2059 -325 
Q 1816 -950 1584 -1140 
Q 1353 -1331 966 -1331 
L 506 -1331 
L 506 -850 
L 844 -850 
Q 1081 -850 1212 -737 
Q 1344 -625 1503 -206 
L 1606 56 
L 191 3500 
L 800 3500 
L 1894 763 
L 2988 3500 
L 3597 3500 
L 2059 -325 
z
" transform="scale(0.015625)"/>
     </defs>
     <use xlink:href="#DejaVuSans-43"/>
     <use xlink:href="#DejaVuSans-6f" transform="translate(69.824219 0)"/>
     <use xlink:href="#DejaVuSans-6d" transform="translate(131.005859 0)"/>
     <use xlink:href="#DejaVuSans-70" transform="translate(228.417969 0)"/>
     <use xlink:href="#DejaVuSans-61" transform="translate(291.894531 0)"/>
     <use xlink:href="#DejaVuSans-72" transform="translate(353.173828 0)"/>
     <use xlink:href="#DejaVuSans-69" transform="translate(394.287109 0)"/>
     <use xlink:href="#DejaVuSans-73" transform="translate(422.070312 0)"/>
     <use xlink:href="#DejaVuSans-6f" transform="translate(474.169922 0)"/>
     <use xlink:href="#DejaVuSans-6e" transform="translate(535.351562 0)"/>
     <use xlink:href="#DejaVuSans-20" transform="translate(598.730469 0)"/>
     <use xlink:href="#DejaVuSans-6f" transform="translate(630.517578 0)"/>
     <use xlink:href="#DejaVuSans-66" transform="translate(691.699219 0)"/>
     <use xlink:href="#DejaVuSans-20" transform="translate(726.904297 0)"/>
     <use xlink:href="#DejaVuSans-50" transform="translate(758.691406 0)"/>
     <use xlink:href="#DejaVuSans-72" transform="translate(817.244141 0)"/>
     <use xlink:href="#DejaVuSans-69" transform="translate(858.357422 0)"/>
     <use xlink:href="#DejaVuSans-63" transform="translate(886.140625 0)"/>
     <use xlink:href="#DejaVuSans-65" transform="translate(941.121094 0)"/>
     <use xlink:href="#DejaVuSans-73" transform="translate(1002.644531 0)"/>
     <use xlink:href="#DejaVuSans-20" transform="translate(1054.744141 0)"/>
     <use xlink:href="#DejaVuSans-6f" transform="translate(1086.53125 0)"/>
     <use xlink:href="#DejaVuSans-66" transform="translate(1147.712891 0)"/>
     <use xlink:href="#DejaVuSans-20" transform="translate(1182.917969 0)"/>
     <use xlink:href="#DejaVuSans-48" transform="translate(1214.705078 0)"/>
     <use xlink:href="#DejaVuSans-6f" transform="translate(1289.900391 0)"/>
     <use xlink:href="#DejaVuSans-75" transform="translate(1351.082031 0)"/>
     <use xlink:href="#DejaVuSans-73" transform="translate(1414.460938 0)"/>
     <use xlink:href="#DejaVuSans-65" transform="translate(1466.560547 0)"/>
     <use xlink:href="#DejaVuSans-73" transform="translate(1528.083984 0)"/>
     <use xlink:href="#DejaVuSans-20" transform="translate(1580.183594 0)"/>
     <use xlink:href="#DejaVuSans-61" transform="translate(1611.970703 0)"/>
     <use xlink:href="#DejaVuSans-74" transform="translate(1673.25 0)"/>
     <use xlink:href="#DejaVuSans-20" transform="translate(1712.458984 0)"/>
     <use xlink:href="#DejaVuSans-74" transform="translate(1744.246094 0)"/>
     <use xlink:href="#DejaVuSans-68" transform="translate(1783.455078 0)"/>
     <use xlink:href="#DejaVuSans-65" transform="translate(1846.833984 0)"/>
     <use xlink:href="#DejaVuSans-20" transform="translate(1908.357422 0)"/>
     <use xlink:href="#DejaVuSans-57" transform="translate(1940.144531 0)"/>
     <use xlink:href="#DejaVuSans-61" transform="translate(2032.646484 0)"/>
     <use xlink:href="#DejaVuSans-74" transform="translate(2093.925781 0)"/>
     <use xlink:href="#DejaVuSans-65" transform="translate(2133.134766 0)"/>
     <use xlink:href="#DejaVuSans-72" transform="translate(2194.658203 0)"/>
     <use xlink:href="#DejaVuSans-66" transform="translate(2235.771484 0)"/>
     <use xlink:href="#DejaVuSans-72" transform="translate(2270.976562 0)"/>
     <use xlink:href="#DejaVuSans-6f" transform="translate(2309.839844 0)"/>
     <use xlink:href="#DejaVuSans-6e" transform="translate(2371.021484 0)"/>
     <use xlink:href="#DejaVuSans-74" transform="translate(2434.400391 0)"/>
     <use xlink:href="#DejaVuSans-20" transform="translate(2473.609375 0)"/>
     <use xlink:href="#DejaVuSans-6f" transform="translate(2505.396484 0)"/>
     <use xlink:href="#DejaVuSans-72" transform="translate(2566.578125 0)"/>
     <use xlink:href="#DejaVuSans-20" transform="translate(2607.691406 0)"/>
     <use xlink:href="#DejaVuSans-61" transform="translate(2639.478516 0)"/>
     <use xlink:href="#DejaVuSans-77" transform="translate(2700.757812 0)"/>
     <use xlink:href="#DejaVuSans-61" transform="translate(2782.544922 0)"/>
     <use xlink:href="#DejaVuSans-79" transform="translate(2843.824219 0)"/>
     <use xlink:href="#DejaVuSans-20" transform="translate(2903.003906 0)"/>
     <use xlink:href="#DejaVuSans-66" transform="translate(2934.791016 0)"/>
     <use xlink:href="#DejaVuSans-72" transform="translate(2969.996094 0)"/>
     <use xlink:href="#DejaVuSans-6f" transform="translate(3008.859375 0)"/>
     <use xlink:href="#DejaVuSans-6d" transform="translate(3070.041016 0)"/>
     <use xlink:href="#DejaVuSans-20" transform="translate(3167.453125 0)"/>
     <use xlink:href="#DejaVuSans-74" transform="translate(3199.240234 0)"/>
     <use xlink:href="#DejaVuSans-68" transform="translate(3238.449219 0)"/>
     <use xlink:href="#DejaVuSans-65" transform="translate(3301.828125 0)"/>
     <use xlink:href="#DejaVuSans-20" transform="translate(3363.351562 0)"/>
     <use xlink:href="#DejaVuSans-57" transform="translate(3395.138672 0)"/>
     <use xlink:href="#DejaVuSans-61" transform="translate(3487.640625 0)"/>
     <use xlink:href="#DejaVuSans-74" transform="translate(3548.919922 0)"/>
     <use xlink:href="#DejaVuSans-65" transform="translate(3588.128906 0)"/>
     <use xlink:href="#DejaVuSans-72" transform="translate(3649.652344 0)"/>
     <use xlink:href="#DejaVuSans-66" transform="translate(3690.765625 0)"/>
     <use xlink:href="#DejaVuSans-72" transform="translate(3725.970703 0)"/>
     <use xlink:href="#DejaVuSans-6f" transform="translate(3764.833984 0)"/>
     <use xlink:href="#DejaVuSans-6e" transform="translate(3826.015625 0)"/>
     <use xlink:href="#DejaVuSans-74" transform="translate(3889.394531 0)"/>
    </g>
   </g>
  </g>
 </g>
 <defs>
  <clipPath id="pfb9eee0547">
   <rect x="34.240625" y="22.318125" width="526.93" height="352.24"/>
  </clipPath>
 </defs>
</svg>
